<svg width="40" height="40" viewBox="0 0 40 40" fill="none" xmlns="http://www.w3.org/2000/svg">
<g clip-path="url(#clip0_296_5314)">
<path d="M20 3.33301C10.8 3.33301 3.33337 10.7997 3.33337 19.9997C3.33337 29.1997 10.8 36.6663 20 36.6663C29.2 36.6663 36.6667 29.1997 36.6667 19.9997C36.6667 10.7997 29.2 3.33301 20 3.33301ZM20 8.33301C22.7667 8.33301 25 10.5663 25 13.333C25 16.0997 22.7667 18.333 20 18.333C17.2334 18.333 15 16.0997 15 13.333C15 10.5663 17.2334 8.33301 20 8.33301ZM20 31.9997C15.8334 31.9997 12.15 29.8663 10 26.633C10.05 23.3163 16.6667 21.4997 20 21.4997C23.3167 21.4997 29.95 23.3163 30 26.633C27.85 29.8663 24.1667 31.9997 20 31.9997Z" fill="white"/>
</g>
<defs>
<clipPath id="clip0_296_5314">
<rect width="40" height="40" fill="white"/>
</clipPath>
</defs>
</svg>
