<svg width="40" height="40" viewBox="0 0 40 40" fill="none" xmlns="http://www.w3.org/2000/svg">
<path fill-rule="evenodd" clip-rule="evenodd" d="M20 36C28.8366 36 36 28.8366 36 20C36 11.1634 28.8366 4 20 4C11.1634 4 4 11.1634 4 20C4 28.8366 11.1634 36 20 36ZM13.6446 8.22219C12.8236 10.5803 13.045 13.4916 14.628 15.3078C16.6126 17.5846 21.3947 18.6688 23.1801 15.0601C20.3356 11.6678 18.6605 11.5758 17.3332 11.5029C16.0278 11.4312 15.0587 11.3779 13.6446 8.22219ZM31.5912 19.1163C31.3928 19.0229 31.1851 18.9252 30.9321 18.8562C30.9105 18.8523 30.8817 18.8466 30.8459 18.8394C30.2721 18.7248 27.9101 18.2529 24.7263 19.4891C24.7263 19.4891 21.9073 20.2408 21.1122 21.0111C22.4498 21.0437 23.6217 20.6127 24.6505 19.7834C23.2941 21.199 21.6172 21.4499 19.8066 21.1618L18.4315 20.817C18.4315 20.817 18.1039 20.7044 17.8764 20.4039L15.6249 18.0921C15.245 17.8327 14.679 17.8529 14.5906 17.9166L16.6154 21.4056C16.6154 21.4056 17.7693 22.1076 18.7153 22.4834C19.6612 22.8593 20.8347 23.4044 20.9035 23.7112C20.9035 23.7112 20.8785 23.83 20.5376 23.6739C20.1967 23.517 18.5886 22.8158 17.9327 22.6279C17.9327 22.6279 17.6677 22.5844 17.3777 22.4275C17.3437 22.4091 17.2981 22.3857 17.243 22.3574C16.8285 22.1442 15.8792 21.656 15.3278 20.987C14.7032 20.2291 12.7292 18.1992 12.7292 18.1992C12.7292 18.1992 12.275 17.7232 11.802 17.9174C11.802 17.9174 11.5058 18.0175 11.5058 18.1868C11.5432 18.4536 12.0226 19.0336 12.3979 19.4876C12.5949 19.726 12.7633 19.9297 12.8238 20.035C12.8238 20.035 14.1356 22.1961 14.9682 22.7661C15.8008 23.3361 16.6076 23.7368 17.7811 24.0629C18.9537 24.3883 19.3892 25.2153 19.3892 25.2153C19.3892 25.2153 19.2946 25.3722 18.8279 25.0647C18.3611 24.7579 17.0376 24.1251 16.513 24.0063C16.0064 23.8913 14.2232 22.8803 14.0027 22.7475C13.7494 22.5937 11.4487 19.559 11.4487 19.559C11.4487 19.559 10.6919 18.6628 10.0485 18.3872C9.40512 18.1115 8.91338 18.4182 8.91338 18.4182C8.91338 18.4182 8.74296 18.6186 9.10257 18.9572C9.53315 19.305 9.91644 19.9018 10.5816 20.9376C10.647 21.0396 10.7153 21.1458 10.7865 21.2565C10.7865 21.2565 12.6534 23.6374 12.7668 23.7438C12.7847 23.7606 12.8045 23.7837 12.8283 23.8115C12.9555 23.9596 13.1979 24.242 13.8831 24.4264C14.697 24.6453 15.7117 25.0212 16.3176 25.3349C16.5511 25.4557 16.9356 25.572 17.3167 25.6873C17.9233 25.8709 18.5211 26.0518 18.487 26.2435C18.487 26.2435 17.3394 25.8956 17.0868 25.8234C16.5505 25.6921 15.1379 25.2534 15.1379 25.2534C15.1379 25.2534 13.0177 24.5669 12.9176 24.5079C12.7612 24.4366 12.6355 24.3238 12.4978 24.2003C12.3327 24.0522 12.1503 23.8886 11.8771 23.7624C11.7068 23.7057 11.4747 23.6527 11.2306 23.597C10.8963 23.5208 10.5394 23.4393 10.2877 23.3361C9.85008 23.1655 9.75428 23.1388 9.42078 23.0459L9.31678 23.0169C9.21661 22.9997 9.13122 22.9825 9.0539 22.9669C8.73728 22.9031 8.55574 22.8664 8.04874 22.9688C7.7376 23.0666 7.19113 23.4052 7.36782 23.5434L11.057 25.1594C11.0883 25.1628 11.2988 25.2735 11.5835 25.4232C12.1376 25.7145 12.9729 26.1536 13.3148 26.2373C13.9363 26.3887 16.7264 26.7444 16.7522 26.7444C16.7582 26.7444 16.8645 26.765 17.0317 26.7974C17.5851 26.9048 18.8059 27.1416 19.2688 27.1893C19.8207 27.246 20.3539 27.2266 21.2365 26.8507C22.1668 26.3794 26.2946 24.9226 26.6417 24.8208C26.6417 24.8208 28.0372 24.4652 28.887 24.4955C29.2365 24.5127 29.5512 24.5109 29.8459 24.5092C31.1055 24.502 32.0003 24.4969 33.6957 25.9882C34.4899 24.3432 34.8268 23.1792 35.1647 20.5572C33.9428 20.0091 32.8563 19.5696 31.9726 19.2825C31.8428 19.2348 31.7189 19.1765 31.5912 19.1163Z" fill="white"/>
</svg>
