<svg width="31" height="34" viewBox="0 0 31 34" fill="none" xmlns="http://www.w3.org/2000/svg">
<path d="M22.1667 18.6663H17.1667C16.25 18.6663 15.5 19.4163 15.5 20.333V25.333C15.5 26.2497 16.25 26.9997 17.1667 26.9997H22.1667C23.0833 26.9997 23.8333 26.2497 23.8333 25.333V20.333C23.8333 19.4163 23.0833 18.6663 22.1667 18.6663ZM22.1667 1.99967V3.66634H8.83333V1.99967C8.83333 1.08301 8.08333 0.333008 7.16667 0.333008C6.25 0.333008 5.5 1.08301 5.5 1.99967V3.66634H3.83333C1.98333 3.66634 0.516667 5.16634 0.516667 6.99967L0.5 30.333C0.5 32.1663 1.98333 33.6663 3.83333 33.6663H27.1667C29 33.6663 30.5 32.1663 30.5 30.333V6.99967C30.5 5.16634 29 3.66634 27.1667 3.66634H25.5V1.99967C25.5 1.08301 24.75 0.333008 23.8333 0.333008C22.9167 0.333008 22.1667 1.08301 22.1667 1.99967ZM25.5 30.333H5.5C4.58333 30.333 3.83333 29.583 3.83333 28.6663V11.9997H27.1667V28.6663C27.1667 29.583 26.4167 30.333 25.5 30.333Z" fill="#5D666F"/>
</svg>
