<svg width="40" height="40" viewBox="0 0 40 40" fill="none" xmlns="http://www.w3.org/2000/svg">
<g clip-path="url(#clip0_307_3359)">
<path d="M16.6667 31.6669V23.3335H23.3334V31.6669C23.3334 32.5835 24.0834 33.3335 25 33.3335H30C30.9167 33.3335 31.6667 32.5835 31.6667 31.6669V20.0002H34.5C35.2667 20.0002 35.6334 19.0502 35.05 18.5502L21.1167 6.0002C20.4834 5.43353 19.5167 5.43353 18.8834 6.0002L4.95004 18.5502C4.38337 19.0502 4.73337 20.0002 5.50004 20.0002H8.33337V31.6669C8.33337 32.5835 9.08337 33.3335 10 33.3335H15C15.9167 33.3335 16.6667 32.5835 16.6667 31.6669Z" fill="#5D666F"/>
</g>
<defs>
<clipPath id="clip0_307_3359">
<rect width="40" height="40" fill="white"/>
</clipPath>
</defs>
</svg>
