<svg width="40" height="40" viewBox="0 0 40 40" fill="none" xmlns="http://www.w3.org/2000/svg">
<g clip-path="url(#clip0_400_9828)">
<path d="M25.8333 22.5002C25.8333 25.8335 21.6667 28.3335 21.6667 30.8335H18.3333C18.3333 28.3335 14.1667 25.8335 14.1667 22.5002C14.1667 19.2835 16.7833 16.6669 20 16.6669C23.2167 16.6669 25.8333 19.2835 25.8333 22.5002ZM21.6667 32.5002H18.3333V33.3335C18.3333 34.2502 19.0833 35.0002 20 35.0002C20.9167 35.0002 21.6667 34.2502 21.6667 33.3335V32.5002ZM31.6667 21.6669C31.6667 23.9835 30.9833 26.1502 29.8 27.9669C29.3833 28.6169 29.4833 29.4835 30.0333 30.0335C30.7667 30.7669 32.0333 30.6669 32.6 29.7835C34.1167 27.4502 35 24.6669 35 21.6669C35 17.7335 33.4833 14.1502 31 11.4669C30.35 10.7669 29.25 10.7502 28.5833 11.4169C27.95 12.0502 27.95 13.0669 28.55 13.7335C30.4833 15.8169 31.6667 18.6002 31.6667 21.6669ZM26.0833 7.75021L21.4333 3.10021C20.9 2.56688 20 2.93355 20 3.68355V6.66688C11.7167 6.66688 5 13.3835 5 21.6669C5 24.6669 5.88333 27.4502 7.4 29.8002C7.96667 30.6835 9.23333 30.7835 9.96667 30.0502C10.5167 29.5002 10.6167 28.6502 10.2 28.0002C7.88333 24.4169 7.46667 19.5002 10.4167 14.6669C12.4167 11.4169 16.1833 9.68355 20 10.0002V12.9835C20 13.7335 20.9 14.1002 21.4167 13.5669L26.0667 8.91688C26.4 8.60021 26.4 8.06688 26.0833 7.75021Z" fill="#676D72"/>
</g>
<defs>
<clipPath id="clip0_400_9828">
<rect width="40" height="40" fill="white"/>
</clipPath>
</defs>
</svg>
