<svg width="41" height="40" viewBox="0 0 41 40" fill="none" xmlns="http://www.w3.org/2000/svg">
<g clip-path="url(#clip0_307_3371)">
<path d="M24.1167 22.8497L26.45 18.8163C26.6 18.5663 26.5334 18.2497 26.3167 18.0663L23.85 16.133C23.9 15.7663 23.9334 15.383 23.9334 14.9997C23.9334 14.6163 23.9 14.233 23.85 13.8497L26.3167 11.9163C26.5334 11.733 26.6 11.4163 26.45 11.1663L24.1167 7.13301C23.9667 6.88301 23.6667 6.78301 23.4 6.88301L20.5 8.04967C19.9 7.58301 19.25 7.19967 18.5334 6.89967L18.1 3.81634C18.05 3.54967 17.8 3.33301 17.5167 3.33301H12.85C12.5667 3.33301 12.3167 3.54967 12.2667 3.83301L11.8334 6.91634C11.1334 7.21634 10.4667 7.59967 9.86671 8.06634L6.96671 6.89967C6.70005 6.79967 6.40005 6.89967 6.25005 7.14967L3.91671 11.183C3.76671 11.433 3.83338 11.7497 4.05005 11.933L6.51671 13.8663C6.46671 14.233 6.43338 14.6163 6.43338 14.9997C6.43338 15.383 6.46671 15.7663 6.51671 16.1497L4.05005 18.083C3.83338 18.2663 3.76671 18.583 3.91671 18.833L6.25005 22.8663C6.40005 23.1163 6.70005 23.2163 6.96671 23.1163L9.86671 21.9497C10.4667 22.4163 11.1167 22.7997 11.8334 23.0997L12.2667 26.183C12.3167 26.4497 12.5667 26.6663 12.85 26.6663H17.5167C17.8 26.6663 18.05 26.4497 18.1 26.1663L18.5334 23.083C19.2334 22.783 19.9 22.3997 20.5 21.933L23.4 23.0997C23.6667 23.1997 23.9667 23.0997 24.1167 22.8497ZM15.1834 18.333C13.35 18.333 11.85 16.833 11.85 14.9997C11.85 13.1663 13.35 11.6663 15.1834 11.6663C17.0167 11.6663 18.5167 13.1663 18.5167 14.9997C18.5167 16.833 17.0167 18.333 15.1834 18.333Z" fill="#5D666F"/>
<path d="M37.0334 31.116L35.4334 29.8827C35.4667 29.6493 35.5 29.3993 35.5 29.1493C35.5 28.8993 35.4834 28.6493 35.4334 28.416L37.0167 27.1827C37.15 27.066 37.2 26.866 37.1 26.6993L35.6 24.116C35.5167 23.9493 35.3167 23.8993 35.1334 23.9493L33.2834 24.6993C32.9 24.3993 32.4834 24.1493 32.0167 23.966L31.7334 21.9993C31.7167 21.7993 31.55 21.666 31.3834 21.666H28.4C28.2167 21.666 28.05 21.7993 28.0334 21.9827L27.75 23.9493C27.3 24.1493 26.8667 24.3827 26.4834 24.6827L24.6334 23.9327C24.4667 23.866 24.2667 23.9327 24.1667 24.0993L22.6667 26.6827C22.5834 26.8493 22.6 27.0493 22.75 27.166L24.3334 28.3994C24.3 28.6327 24.2834 28.8827 24.2834 29.1327C24.2834 29.3827 24.3 29.6327 24.3334 29.866L22.75 31.0993C22.6167 31.216 22.5667 31.416 22.6667 31.5827L24.1667 34.166C24.25 34.3327 24.45 34.3827 24.6334 34.3327L26.4834 33.5827C26.8667 33.8827 27.2834 34.1327 27.75 34.316L28.0334 36.2827C28.0667 36.466 28.2167 36.5993 28.4 36.5993H31.3834C31.5667 36.5993 31.7334 36.466 31.75 36.2827L32.0334 34.316C32.4834 34.116 32.9167 33.8827 33.2834 33.5827L35.15 34.3327C35.3167 34.3994 35.5167 34.3327 35.6167 34.166L37.1167 31.5827C37.2167 31.4327 37.1667 31.2327 37.0334 31.116ZM29.8834 31.3827C28.65 31.3827 27.6334 30.3827 27.6334 29.1327C27.6334 27.8827 28.6334 26.8827 29.8834 26.8827C31.1334 26.8827 32.1334 27.8827 32.1334 29.1327C32.1334 30.3827 31.1167 31.3827 29.8834 31.3827Z" fill="#5D666F"/>
</g>
<defs>
<clipPath id="clip0_307_3371">
<rect width="40" height="40" fill="white" transform="translate(0.5)"/>
</clipPath>
</defs>
</svg>
